HIERARCHY
ROOT hip
{
  OFFSET 245.462 76.5986 -72.8498
  CHANNELS 6 Xposition Yposition Zposition Zrotation Xrotation Yrotation
  JOINT abdomen
  {
    OFFSET 0 20.6881 -0.73152
    CHANNELS 3 Zrotation Xrotation Yrotation
    JOINT chest
    {
      OFFSET 0 11.7043 -0.48768
      CHANNELS 3 Zrotation Xrotation Yrotation
      JOINT neck
      {
        OFFSET 0 22.1894 -2.19456
        CHANNELS 3 Zrotation Xrotation Yrotation
        JOINT head
        {
          OFFSET -0.24384 7.07133 1.2192
          CHANNELS 3 Zrotation Xrotation Yrotation
          JOINT leftEye
          {
            OFFSET 4.14528 8.04674 8.04672
            CHANNELS 3 Zrotation Xrotation Yrotation
            End Site
            {
              OFFSET 1 0 0
            }
          }
          JOINT rightEye
          {
            OFFSET -3.6576 8.04674 8.04672
            CHANNELS 3 Zrotation Xrotation Yrotation
            End Site
            {
              OFFSET 1 0 0
            }
          }
        }
      }
      JOINT rCollar
      {
        OFFSET -2.68224 19.2634 -4.8768
        CHANNELS 3 Zrotation Xrotation Yrotation
        JOINT rShldr
        {
          OFFSET -8.77824 -1.95073 1.46304
          CHANNELS 3 Zrotation Xrotation Yrotation
          JOINT rForeArm
          {
            OFFSET -28.1742 -1.7115 0.48768
            CHANNELS 3 Zrotation Xrotation Yrotation
            JOINT rHand
            {
              OFFSET -22.5879 0.773209 7.07136
              CHANNELS 3 Zrotation Xrotation Yrotation
              JOINT rThumb1
              {
                OFFSET -1.2192 -0.487915 3.41376
                CHANNELS 3 Zrotation Xrotation Yrotation
                JOINT rThumb2
                {
                  OFFSET -3.37035 -0.52449 3.41376
                  CHANNELS 3 Zrotation Xrotation Yrotation
                  End Site
                  {
                    OFFSET -1.78271 -1.18214 1.43049
                  }
                }
              }
              JOINT rIndex1
              {
                OFFSET -7.75947 0.938293 5.60832
                CHANNELS 3 Zrotation Xrotation Yrotation
                JOINT rIndex2
                {
                  OFFSET -2.54057 -0.884171 1.56538
                  CHANNELS 3 Zrotation Xrotation Yrotation
                  End Site
                  {
                    OFFSET -1.62519 -0.234802 1.16502
                  }
                }
              }
              JOINT rMid1
              {
                OFFSET -8.24714 1.18213 3.41376
                CHANNELS 3 Zrotation Xrotation Yrotation
                JOINT rMid2
                {
                  OFFSET -3.10165 -0.590103 1.0647
                  CHANNELS 3 Zrotation Xrotation Yrotation
                  End Site
                  {
                    OFFSET -2.48547 -0.328903 0.83742
                  }
                }
              }
              JOINT rRing1
              {
                OFFSET -8.82822 0.546677 1.51678
                CHANNELS 3 Zrotation Xrotation Yrotation
                JOINT rRing2
                {
                  OFFSET -2.60934 -0.819778 -0.0198488
                  CHANNELS 3 Zrotation Xrotation Yrotation
                  End Site
                  {
                    OFFSET -2.33842 -0.294052 0.168128
                  }
                }
              }
              JOINT rPinky1
              {
                OFFSET -8.27202 -0.0477905 -0.4584
                CHANNELS 3 Zrotation Xrotation Yrotation
                JOINT rPinky2
                {
                  OFFSET -1.82734 -0.647385 -0.700984
                  CHANNELS 3 Zrotation Xrotation Yrotation
                  End Site
                  {
                    OFFSET -1.69225 -0.51767 -0.607171
                  }
                }
              }
            }
          }
        }
      }
      JOINT lCollar
      {
        OFFSET 2.68224 19.2634 -4.8768
        CHANNELS 3 Zrotation Xrotation Yrotation
        JOINT lShldr
        {
          OFFSET 8.77824 -1.95073 1.46304
          CHANNELS 3 Zrotation Xrotation Yrotation
          JOINT lForeArm
          {
            OFFSET 28.1742 -1.7115 0.48768
            CHANNELS 3 Zrotation Xrotation Yrotation
            JOINT lHand
            {
              OFFSET 22.5879 0.773209 7.07136
              CHANNELS 3 Zrotation Xrotation Yrotation
              JOINT lThumb1
              {
                OFFSET 1.2192 -0.487915 3.41376
                CHANNELS 3 Zrotation Xrotation Yrotation
                JOINT lThumb2
                {
                  OFFSET 3.37035 -0.52449 3.41376
                  CHANNELS 3 Zrotation Xrotation Yrotation
                  End Site
                  {
                    OFFSET 1.78271 -1.18214 1.43049
                  }
                }
              }
              JOINT lIndex1
              {
                OFFSET 7.75947 0.938293 5.60832
                CHANNELS 3 Zrotation Xrotation Yrotation
                JOINT lIndex2
                {
                  OFFSET 2.54057 -0.884171 1.56538
                  CHANNELS 3 Zrotation Xrotation Yrotation
                  End Site
                  {
                    OFFSET 1.62519 -0.234802 1.16502
                  }
                }
              }
              JOINT lMid1
              {
                OFFSET 8.24714 1.18213 3.41376
                CHANNELS 3 Zrotation Xrotation Yrotation
                JOINT lMid2
                {
                  OFFSET 3.10165 -0.590103 1.0647
                  CHANNELS 3 Zrotation Xrotation Yrotation
                  End Site
                  {
                    OFFSET 2.48547 -0.328903 0.83742
                  }
                }
              }
              JOINT lRing1
              {
                OFFSET 8.82822 0.546677 1.51678
                CHANNELS 3 Zrotation Xrotation Yrotation
                JOINT lRing2
                {
                  OFFSET 2.60934 -0.819778 -0.0198488
                  CHANNELS 3 Zrotation Xrotation Yrotation
                  End Site
                  {
                    OFFSET 2.33842 -0.294052 0.168128
                  }
                }
              }
              JOINT lPinky1
              {
                OFFSET 8.27202 -0.0477905 -0.4584
                CHANNELS 3 Zrotation Xrotation Yrotation
                JOINT lPinky2
                {
                  OFFSET 1.82734 -0.647385 -0.700984
                  CHANNELS 3 Zrotation Xrotation Yrotation
                  End Site
                  {
                    OFFSET 1.69225 -0.51767 -0.607171
                  }
                }
              }
            }
          }
        }
      }
    }
  }
  JOINT rButtock
  {
    OFFSET -8.77824 4.35084 1.2192
    CHANNELS 3 Zrotation Xrotation Yrotation
    JOINT rThigh
    {
      OFFSET 0 -1.70687 -2.19456
      CHANNELS 3 Zrotation Xrotation Yrotation
      JOINT rShin
      {
        OFFSET 0 -36.8199 0.73152
        CHANNELS 3 Zrotation Xrotation Yrotation
        JOINT rFoot
        {
          OFFSET 0.73152 -45.1104 -5.12064
          CHANNELS 3 Zrotation Xrotation Yrotation
          End Site
          {
            OFFSET -1.1221 -3.69964 12.103
          }
        }
      }
    }
  }
  JOINT lButtock
  {
    OFFSET 8.77824 4.35084 1.2192
    CHANNELS 3 Zrotation Xrotation Yrotation
    JOINT lThigh
    {
      OFFSET 0 -1.70687 -2.19456
      CHANNELS 3 Zrotation Xrotation Yrotation
      JOINT lShin
      {
        OFFSET 0 -36.8199 0.73152
        CHANNELS 3 Zrotation Xrotation Yrotation
        JOINT lFoot
        {
          OFFSET -0.73152 -45.1104 -5.12064
          CHANNELS 3 Zrotation Xrotation Yrotation
          End Site
          {
            OFFSET 1.1221 -3.69964 12.103
          }
        }
      }
    }
  }
}
MOTION
Frames:	4
Frame Time:	0.00833333
66.7717 77.3136 16.5933 6.58925 2.58034 -110.505 -13.2246 14.1425 -9.11404 9.92645 3.1602 -2.97318 -13.9485 9.37536 0.725187 23.4555 -37.496 11.7271 -0 0 0 -0 0 0 -3.17243e-013 5.82816e-012 8.62129e-013 76.1049 1.9526 9.17036 -28.3849 -37.2905 79.1901 -2.67194 -41.2765 -7.08642 -1.71553e-009 -2.3935e-009 2.53238e-009 -3.03671e-009 -4.00044e-009 4.30626e-009 -1.71551e-009 -2.3935e-009 2.53237e-009 7.73091 5.47488 0.417314 -1.71553e-009 -2.39348e-009 2.53236e-009 2.90554 0.965183 0.102902 -1.71552e-009 -2.3935e-009 2.53237e-009 10.2786 0.731801 0.0259123 -1.71553e-009 -2.3935e-009 2.53237e-009 2.22167 -0.733487 -0.20892 -3.17249e-013 5.82817e-012 8.61831e-013 -72.0432 45.3366 2.2832 24.8022 -20.6778 -52.2574 0.640463 -22.1229 3.27527 -2.97381e-010 -1.32156e-009 -4.77956e-009 -4.31226e-010 -2.28842e-009 -8.26205e-009 -2.97385e-010 -1.32156e-009 -4.77954e-009 -7.73091 5.47488 -0.417314 -2.97381e-010 -1.32156e-009 -4.77956e-009 -2.90554 0.965183 -0.102902 -2.97389e-010 -1.32156e-009 -4.77956e-009 -10.2786 0.731801 -0.0259123 -2.97374e-010 -1.32156e-009 -4.77956e-009 -2.22167 -0.733487 0.20892 -2.03217e-016 0 -3.88251e-019 -15.674 -47.8664 -2.93535 -0.286109 34.2275 0.322425 0.308633 -3.42328 5.16581 2.03217e-016 0 3.88251e-019 -11.2022 16.4469 2.97563 0.713381 55.6003 -1.69921 0.256302 11.491 10.5252 
70.6914 76.7349 15.3654 5.69422 2.04338 -110.397 -12.2103 14.7315 -9.08397 9.46486 2.96469 -2.89495 -13.8442 9.47436 0.952749 23.493 -38.3421 12.4141 -0 0 0 -0 0 0 -2.57266e-013 3.76951e-012 6.15934e-013 76.7774 2.58154 8.63593 -28.3127 -38.1748 80.7391 -3.04213 -43.4401 -7.64175 -8.76649e-010 -1.99127e-009 2.0786e-009 -1.57585e-009 -3.36141e-009 3.55667e-009 -8.76636e-010 -1.99127e-009 2.07859e-009 7.73091 5.47488 0.417314 -8.76651e-010 -1.99126e-009 2.07859e-009 2.90554 0.965183 0.102902 -8.76642e-010 -1.99127e-009 2.07859e-009 10.2786 0.731801 0.0259123 -8.76651e-010 -1.99127e-009 2.0786e-009 2.22167 -0.733487 -0.20892 -2.57275e-013 3.76952e-012 6.15641e-013 -75.8838 44.7576 6.08603 24.329 -19.7218 -50.6371 0.564228 -20.9413 3.08083 -2.94325e-010 -9.85148e-010 -3.64691e-009 -4.43291e-010 -1.7066e-009 -6.30435e-009 -2.94329e-010 -9.85148e-010 -3.64688e-009 -7.73091 5.47488 -0.417314 -2.94325e-010 -9.85145e-010 -3.64691e-009 -2.90554 0.965183 -0.102902 -2.94334e-010 -9.85147e-010 -3.64691e-009 -10.2786 0.731801 -0.0259123 -2.94318e-010 -9.85145e-010 -3.64691e-009 -2.22167 -0.733487 0.20892 -2.03217e-016 0 -3.88251e-019 -15.0109 -47.5964 -3.7901 -0.348109 36.5767 0.300742 0.509902 -2.36359 6.7809 2.03217e-016 0 3.88251e-019 -9.50666 14.8575 4.59632 0.979247 60.8322 -1.96156 0.477905 10.965 11.5408 
74.5119 76.1932 14.2167 4.69931 1.33385 -110.208 -10.8951 15.4463 -9.09254 8.81493 2.5849 -2.79986 -13.4788 9.54661 1.20455 23.144 -39.1034 12.9722 -0 0 0 -0 0 0 -1.34477e-013 6.70548e-013 2.09308e-013 77.2952 3.33306 8.39749 -28.2226 -39.0355 82.2102 -3.50046 -45.7954 -8.29795 2.44846e-010 -1.11195e-009 9.99056e-010 3.90702e-010 -1.92951e-009 1.74211e-009 2.44858e-010 -1.11195e-009 9.99049e-010 7.73091 5.47488 0.417314 2.44845e-010 -1.11194e-009 9.99047e-010 2.90554 0.965183 0.102902 2.44853e-010 -1.11195e-009 9.99055e-010 10.2786 0.731801 0.0259123 2.44845e-010 -1.11195e-009 9.9906e-010 2.22167 -0.733487 -0.20892 -1.34487e-013 6.70541e-013 2.09028e-013 -79.8778 43.743 10.011 23.7497 -18.6094 -48.8683 0.468446 -19.1998 2.80257 -3.55525e-010 -3.75604e-010 -1.52587e-009 -5.82224e-010 -6.52179e-010 -2.63975e-009 -3.5553e-010 -3.75604e-010 -1.52583e-009 -7.73091 5.47488 -0.417314 -3.55525e-010 -3.75602e-010 -1.52586e-009 -2.90554 0.965183 -0.102902 -3.55536e-010 -3.75604e-010 -1.52586e-009 -10.2786 0.731801 -0.0259123 -3.55519e-010 -3.75602e-010 -1.52586e-009 -2.22167 -0.733487 0.20892 -2.03217e-016 0 -3.88251e-019 -14.2693 -47.7375 -4.76139 -0.435579 40.2326 0.312373 0.650203 -0.857014 8.84533 2.03217e-016 0 3.88251e-019 -7.29343 13.0186 6.47731 1.39429 66.3304 -2.39168 0.76495 10.2497 13.0325 
78.3496 76.5282 12.9277 3.66933 0.464968 -110.058 -9.30733 16.2175 -9.09807 8.08988 2.17537 -2.68693 -12.9973 9.58082 1.4369 22.6332 -39.8517 13.4278 -0 0 0 -0 0 0 5.06432e-015 -2.37032e-012 -2.12233e-013 77.6343 4.01403 8.37394 -28.1097 -39.8395 83.6049 -4.02005 -48.1089 -9.00686 1.25508e-009 -1.2781e-010 -2.31343e-010 2.17061e-009 -3.16271e-010 -3.35751e-010 1.25509e-009 -1.27808e-010 -2.3135e-010 7.73091 5.47488 0.417314 1.25508e-009 -1.27805e-010 -2.31351e-010 2.90554 0.965183 0.102902 1.25509e-009 -1.27807e-010 -2.31341e-010 10.2786 0.731801 0.0259123 1.25508e-009 -1.27806e-010 -2.31336e-010 2.22167 -0.733487 -0.20892 5.0446e-015 -2.37033e-012 -2.12496e-013 -83.6121 42.4917 13.564 23.0596 -17.3989 -46.8478 0.374949 -17.2002 2.49216 -4.66937e-010 2.29945e-010 5.57788e-010 -8.0878e-010 3.95212e-010 9.59469e-010 -4.66943e-010 2.29945e-010 5.57825e-010 -7.73091 5.47488 -0.417314 -4.66938e-010 2.29946e-010 5.57799e-010 -2.90554 0.965183 -0.102902 -4.6695e-010 2.29945e-010 5.57802e-010 -10.2786 0.731801 -0.0259123 -4.66932e-010 2.29947e-010 5.57801e-010 -2.22167 -0.733487 0.20892 -2.03217e-016 0 -3.88251e-019 -13.3258 -47.7023 -5.64628 -0.534974 44.1818 0.344174 0.735492 0.135832 10.4771 2.03217e-016 0 3.88251e-019 -4.6825 10.8789 8.33984 2.11381 71.8681 -3.12024 1.06947 9.56792 14.2165 
